# Blender v2.90.1 OBJ File: ''
# www.blender.org
mtllib untitled.mtl
o Cube
v 98.094978 1.000000 -98.094978
v 100.000000 -1.000000 -100.000000
v 98.094978 1.000000 98.094978
v 100.000000 -1.000000 100.000000
v 35.767391 60.468414 -89.738754
v 35.767391 1.000000 89.664017
v 100.000000 -1.000000 -89.738754
v 98.094978 1.000000 -91.643776
v 35.767391 1.000000 -89.738754
v -83.435463 -0.936364 -100.000000
v -83.435463 -0.936364 100.000000
v 89.773346 -1.000000 100.000000
v 91.678368 1.000000 -98.094978
v 89.773346 -1.000000 -100.000000
v 91.678360 1.000000 98.094978
v 89.773346 -1.000000 -89.738754
v 91.678368 1.000000 -91.643776
v -83.435463 1.063636 -89.738754
v -89.799080 -1.000000 -89.738754
v 35.767391 60.468414 89.664017
v 98.094978 1.000000 91.569038
v 100.000000 -1.000000 89.664017
v -89.799080 -1.000000 89.664017
v -83.435463 1.063636 89.664017
v 91.678360 1.000000 91.569038
v 89.773346 -1.000000 89.664017
v 39.773415 -1.000000 -89.738754
v 39.773415 1.000000 -89.738754
v 39.773415 -1.000000 -100.000000
v 39.773415 1.000000 100.000000
v 39.773415 -1.000000 100.000000
v 39.773415 1.000000 -100.000000
v 39.773415 1.000000 89.664017
v 39.773415 -1.000000 89.664017
v 29.963081 -1.000000 -89.738754
v 23.599463 -0.936364 -100.000000
v 29.963081 -1.000000 89.664017
v 23.599463 1.063636 -89.738754
v 23.599463 -0.936364 100.000000
v 23.599463 1.063636 89.664017
v -83.435463 80.447861 100.000000
v -83.435463 80.447861 -100.000000
v -83.435463 80.447861 -89.738754
v -83.435463 80.447861 89.664017
v 23.599461 80.447861 100.000000
v 23.599461 80.447861 -89.738754
v 23.599461 80.447861 -100.000000
v 23.599461 80.447861 89.664017
v 100.000000 1.000000 89.664017
v 100.000000 1.000000 100.000000
v 89.773346 1.000000 -100.000000
v 100.000000 1.000000 -100.000000
v 100.000000 1.000000 -89.738754
v 89.773346 1.000000 -89.738754
v 89.773346 1.000000 100.000000
v 89.773346 1.000000 89.664017
v 98.094978 60.620163 91.569038
v 98.094978 60.620163 98.094978
v 91.678368 60.620163 -98.094978
v 98.094978 60.620163 -98.094978
v 98.094978 60.620163 -91.643776
v 91.678368 60.620163 -91.643776
v 91.678360 60.620163 98.094978
v 91.678360 60.620163 91.569038
v 39.773415 60.468414 -89.738754
v 39.773415 60.468414 89.664017
v 39.773415 60.468414 100.000000
v 39.773415 60.468414 -100.000000
v 39.773415 69.934105 -89.738754
v 39.773415 69.934105 100.000000
v 39.773415 69.934105 -100.000000
v 39.773415 69.934105 89.664017
v 99.845421 58.611694 -89.738754
v 99.845421 65.887299 -89.738754
v 99.845421 58.611694 100.000000
v 99.845421 65.887299 100.000000
v 99.845421 58.611694 -100.000000
v 99.845421 65.887299 -100.000000
v 99.845421 65.887299 89.664017
v 99.845421 58.611694 89.664017
v -29.917997 -1.000000 -89.738754
v -29.917997 -0.936364 -100.000000
v -29.917997 -1.000000 89.664017
v -29.918003 1.063636 -89.738754
v -29.918003 -0.936364 100.000000
v -29.918003 1.063636 89.664017
v -29.917997 135.890335 100.000000
v -29.918003 135.890335 -89.738754
v -29.918003 135.890335 -100.000000
v -29.918003 135.890335 89.664017
v -89.799080 1.000000 89.664017
v -89.799080 80.448166 89.664017
v -89.799080 80.448166 -100.000000
v -89.799080 -1.000000 -100.000000
v -89.799080 80.448166 100.000000
v -89.799080 -1.000000 100.000000
v -29.917997 -1.000000 -100.000000
v -29.918003 1.000000 -89.738754
v 29.963081 1.000000 -89.738754
v -29.918003 -1.000000 100.000000
v 29.963081 -1.000000 100.000000
v -29.918003 1.000000 89.664017
v 29.963081 1.000000 89.664017
v 29.963081 80.448166 -100.000000
v 29.963081 -1.000000 -100.000000
v 29.963081 80.448166 -89.738754
v 29.963081 80.448166 89.664017
v 29.963081 80.448166 100.000000
v -29.917997 142.483154 100.000000
v -29.918003 142.483154 -89.738754
v -29.918003 142.483154 -100.000000
v -29.918003 142.483154 89.664017
v -89.799080 1.000000 -89.738754
v -89.799080 80.448166 -89.738754
v 29.963081 80.448166 32.983994
v -29.918003 142.483154 32.983994
v 0.022539 111.465660 89.664017
v 0.022539 111.465660 32.983994
v 7.642882 103.573334 89.664017
v 22.342739 88.340492 89.664017
v 22.342739 88.340492 32.983994
v 7.642882 103.573334 32.983994
v -29.918003 142.483154 70.770676
v -29.918003 142.483154 51.877331
v 0.022539 111.465660 70.770676
v 0.022539 111.465660 51.877331
v 7.642882 103.573334 70.770676
v 7.642882 103.573334 51.877331
v 22.342739 88.340492 70.770676
v 22.342739 88.340492 51.877331
v 4.877735 132.280930 74.636040
v 4.877735 132.280930 48.011959
v 25.237888 132.244156 74.636040
v 25.237888 132.244156 48.011959
v 22.310755 127.963806 70.770676
v 7.736704 127.979668 70.770676
v 7.736704 127.979668 51.877331
v 22.310755 127.963806 51.877331
v 25.260422 129.038422 74.636040
v 4.811630 129.064743 48.011959
v 4.811630 129.064743 74.636040
v 25.260422 129.038422 48.011959
v -83.435463 80.447861 -95.820366
v -83.435463 -0.936363 -95.820366
v -83.435463 80.447861 95.820366
v -83.435463 -0.936363 95.820366
v -29.917997 -0.936363 -95.820366
v -29.918003 -0.936363 95.820366
v 23.599464 -0.936363 95.820366
v 23.599457 80.447861 -95.820366
v 23.599464 -0.936363 -95.820366
v 23.599457 80.447861 95.820366
v -29.917997 135.890335 95.820366
v -29.918003 135.890335 -95.820366
v 10.186253 132.271347 69.241631
v 19.929371 132.253738 69.241631
v 19.929371 132.253738 53.406368
v 10.186253 132.271347 53.406368
v 19.929371 126.817261 69.241631
v 10.186253 126.834869 69.241631
v 10.186253 126.834869 53.406368
v 19.929371 126.817261 53.406368
vt 0.750000 0.625000
vt 0.750000 0.687500
vt 0.750000 0.687500
vt 0.750000 0.625000
vt 0.312500 0.687500
vt 0.375000 0.687500
vt 0.375000 0.750000
vt 0.312500 0.750000
vt 0.625000 0.687500
vt 0.625000 0.750000
vt 0.375000 0.437500
vt 0.625000 0.437500
vt 0.625000 0.500000
vt 0.375000 0.500000
vt 0.250000 0.687500
vt 0.250000 0.750000
vt 0.375169 0.342090
vt 0.375111 0.328125
vt 0.375111 0.328125
vt 0.375169 0.342090
vt 0.625000 0.375000
vt 0.375000 0.375000
vt 0.750000 0.625000
vt 0.750000 0.625000
vt 0.375000 0.937500
vt 0.812500 0.750000
vt 0.812500 0.687500
vt 0.812500 0.625000
vt 0.625000 0.312500
vt 0.187500 0.500000
vt 0.187500 0.625000
vt 0.187500 0.687500
vt 0.796875 0.625000
vt 0.782911 0.625000
vt 0.782911 0.625000
vt 0.796875 0.625000
vt 0.636643 0.699019
vt 0.675857 0.699019
vt 0.675857 0.699019
vt 0.636643 0.699019
vt 0.636642 0.738481
vt 0.636642 0.738481
vt 0.625000 0.812500
vt 0.375000 0.812500
vt 0.750000 0.687500
vt 0.750000 0.625000
vt 0.750000 0.625000
vt 0.750000 0.687500
vt 0.625000 0.625000
vt 0.375000 0.625000
vt 0.812500 0.687500
vt 0.812500 0.625000
vt 0.312500 0.500000
vt 0.312500 0.625000
vt 0.250000 0.500000
vt 0.250000 0.625000
vt 0.687500 0.625000
vt 0.687500 0.687500
vt 0.796875 0.625000
vt 0.796875 0.687500
vt 0.750000 0.687500
vt 0.750000 0.687500
vt 0.750000 0.750000
vt 0.750000 0.750000
vt 0.218750 0.625000
vt 0.218750 0.687500
vt 0.218750 0.500000
vt 0.687500 0.500000
vt 0.750000 0.500000
vt 0.750000 0.750000
vt 0.687500 0.750000
vt 0.375000 0.343750
vt 0.625000 0.343750
vt 0.625000 0.375000
vt 0.625000 0.375000
vt 0.625000 0.375000
vt 0.625000 0.375000
vt 0.625000 0.875000
vt 0.375000 0.875000
vt 0.218750 0.750000
vt 0.203125 0.687500
vt 0.203125 0.750000
vt 0.203125 0.500000
vt 0.203125 0.625000
vt 0.750000 0.500000
vt 0.750000 0.500000
vt 0.796875 0.687500
vt 0.810840 0.687500
vt 0.810840 0.687500
vt 0.796875 0.687500
vt 0.781250 0.625000
vt 0.781250 0.687500
vt 0.781250 0.687500
vt 0.781250 0.656250
vt 0.781250 0.625000
vt 0.625000 0.875000
vt 0.625000 0.875000
vt 0.625000 0.875000
vt 0.625000 0.875000
vt 0.625000 0.906250
vt 0.375000 0.906250
vt 0.796875 0.687500
vt 0.796875 0.750000
vt 0.796875 0.500000
vt 0.812500 0.500000
vt 0.796875 0.625000
vt 0.750000 0.625000
vt 0.750000 0.687500
vt 0.750000 0.500000
vt 0.781250 0.500000
vt 0.781250 0.750000
vt 0.750000 0.750000
vt 0.675857 0.523207
vt 0.636643 0.523207
vt 0.636643 0.601794
vt 0.675857 0.601793
vt 0.675857 0.738481
vt 0.636643 0.523207
vt 0.675857 0.523207
vt 0.675857 0.601793
vt 0.636643 0.601794
vt 0.675857 0.738481
vt 0.750000 0.500000
vt 0.750000 0.750000
vt 0.783854 0.687500
vt 0.786458 0.687500
vt 0.789062 0.687500
vt 0.782911 0.687500
vt 0.782911 0.687500
vt 0.187500 0.750000
vt 0.810840 0.625000
vt 0.810840 0.625000
vt 0.613475 0.314160
vt 0.375169 0.314160
vt 0.375000 0.312500
vt 0.375169 0.935840
vt 0.613475 0.935840
vt 0.625000 0.937500
vt 0.375000 0.328125
vt 0.375169 0.907910
vt 0.375111 0.921875
vt 0.375000 0.921875
vt 0.613475 0.342090
vt 0.613475 0.907910
vt 0.613513 0.921875
vt 0.625000 0.921875
vt 0.613513 0.328125
vt 0.625000 0.328125
vt 0.796875 0.677083
vt 0.796875 0.666667
vt 0.796875 0.656250
vt 0.789062 0.656250
vt 0.786458 0.656250
vt 0.783854 0.656250
vt 0.783854 0.666667
vt 0.783854 0.677083
vt 0.789062 0.666667
vt 0.786458 0.666667
vt 0.786458 0.677083
vt 0.786458 0.677083
vt 0.783854 0.677083
vt 0.783854 0.677083
vt 0.786458 0.677083
vt 0.789062 0.677083
vt 0.785779 0.668777
vt 0.785779 0.674973
vt 0.785779 0.674973
vt 0.785779 0.668777
vt 0.783854 0.666667
vt 0.786458 0.666667
vt 0.786458 0.666667
vt 0.783854 0.666667
vt 0.786458 0.677083
vt 0.786458 0.666667
vt 0.783854 0.666667
vt 0.783854 0.677083
vt 0.375169 0.935840
vt 0.613475 0.935840
vt 0.613475 0.342090
vt 0.375169 0.314160
vt 0.613475 0.314160
vt 0.613513 0.328125
vt 0.375169 0.907910
vt 0.613475 0.907910
vt 0.613513 0.921875
vt 0.375111 0.921875
vt 0.784533 0.674973
vt 0.784533 0.668777
vt 0.784533 0.674973
vt 0.784533 0.668777
vn 0.0000 -1.0000 0.0000
vn 1.0000 0.0000 0.0000
vn 0.0000 0.0000 -1.0000
vn 0.0000 1.0000 -0.0000
vn 0.0000 0.0000 1.0000
vn -1.0000 0.0000 0.0000
vn -0.1852 -0.9827 0.0000
vn -0.7195 0.6945 0.0000
vn 0.2040 0.9790 0.0000
vn 0.7195 0.6945 0.0000
vn -0.7195 -0.6945 0.0000
vn 0.7195 -0.6945 0.0000
vn 0.7194 0.6946 0.0000
vn 0.7196 0.6944 0.0000
vn 1.0000 0.0070 0.0000
vn -0.9998 0.0205 0.0000
vn -1.0000 0.0038 0.0000
vn 1.0000 0.0008 0.0000
vn -0.3478 -0.9376 0.0000
vn 0.3423 -0.9396 0.0000
vn -0.0012 -0.9631 -0.2691
vn -0.0012 -0.9631 0.2691
vn 0.0018 1.0000 0.0000
usemtl Material
s off
f 65/1/1 66/2/1 20/3/1 5/4/1
f 26/5/1 22/6/1 4/7/1 12/8/1
f 22/6/2 49/9/2 50/10/2 4/7/2
f 14/11/3 51/12/3 52/13/3 2/14/3
f 34/15/1 26/5/1 12/8/1 31/16/1
f 36/17/4 82/18/4 147/19/4 151/20/4
f 32/21/3 51/12/3 14/11/3 29/22/3
f 28/23/5 65/1/5 5/4/5 9/24/5
f 96/25/6 95/26/6 92/27/6 114/28/6 93/29/6 94/30/6 19/31/6 23/32/6
f 84/33/5 38/34/5 46/35/5 88/36/5
f 21/37/3 25/38/3 64/39/3 57/40/3
f 3/41/2 21/37/2 57/40/2 58/42/2
f 4/7/5 50/10/5 55/43/5 12/44/5
f 72/45/7 69/46/7 73/47/7 80/48/7
f 2/14/2 52/13/2 53/49/2 7/50/2
f 91/51/2 113/52/2 114/28/2 92/27/2
f 14/53/1 2/14/1 7/50/1 16/54/1
f 29/55/1 14/53/1 16/54/1 27/56/1
f 53/49/4 54/57/4 56/58/4 49/9/4
f 98/59/4 113/52/4 91/51/4 102/60/4
f 66/2/3 33/61/3 6/62/3 20/3/3
f 27/56/1 16/54/1 26/5/1 34/15/1
f 7/50/2 53/49/2 49/9/2 22/6/2
f 16/54/1 7/50/1 22/6/1 26/5/1
f 70/63/7 72/45/7 80/48/7 75/64/7
f 35/65/1 27/56/1 34/15/1 37/66/1
f 54/57/4 28/23/4 33/61/4 56/58/4
f 105/67/1 29/55/1 27/56/1 35/65/1
f 51/68/4 32/69/4 28/23/4 54/57/4
f 56/58/4 33/61/4 30/70/4 55/71/4
f 32/21/3 29/22/3 105/72/3 104/73/3 78/74/3 77/75/3 71/76/3 68/77/3
f 12/44/5 55/43/5 30/78/5 31/79/5
f 37/66/1 34/15/1 31/16/1 101/80/1
f 83/81/1 37/66/1 101/80/1 100/82/1
f 97/83/1 105/67/1 35/65/1 81/84/1
f 81/84/1 35/65/1 37/66/1 83/81/1
f 69/46/7 71/85/7 77/86/7 73/47/7
f 86/87/3 24/88/3 44/89/3 90/90/3
f 99/91/6 103/92/6 107/93/6 115/94/6 106/95/6
f 31/79/5 30/78/5 67/96/5 70/97/5 75/98/5 76/99/5 108/100/5 101/101/5
f 112/102/8 92/27/8 95/26/8 109/103/8
f 111/104/8 93/105/8 114/28/8 110/106/8
f 6/62/2 9/24/2 5/4/2 20/3/2
f 74/107/9 106/95/9 115/94/9 107/93/9 79/108/9
f 78/109/9 104/110/9 106/95/9 74/107/9
f 79/108/9 107/93/9 108/111/9 76/112/9
f 21/37/4 3/41/4 50/10/4 49/9/4
f 13/113/4 1/114/4 52/13/4 51/68/4
f 1/114/4 8/115/4 53/49/4 52/13/4
f 17/116/4 13/113/4 51/68/4 54/57/4
f 8/115/4 17/116/4 54/57/4 53/49/4
f 3/41/4 15/117/4 55/71/4 50/10/4
f 15/117/4 25/38/4 56/58/4 55/71/4
f 25/38/4 21/37/4 49/9/4 56/58/4
f 60/118/4 59/119/4 62/120/4 61/121/4
f 57/40/4 64/39/4 63/122/4 58/42/4
f 15/117/5 3/41/5 58/42/5 63/122/5
f 13/113/6 17/116/6 62/120/6 59/119/6
f 1/114/3 13/113/3 59/119/3 60/118/3
f 25/38/6 15/117/6 63/122/6 64/39/6
f 17/116/5 8/115/5 61/121/5 62/120/5
f 8/115/2 1/114/2 60/118/2 61/121/2
f 33/61/4 28/23/4 9/24/4 6/62/4
f 28/23/2 32/69/2 68/123/2 65/1/2
f 30/70/2 33/61/2 66/2/2 67/124/2
f 66/2/2 65/1/2 69/46/2 72/45/2
f 65/1/2 68/123/2 71/85/2 69/46/2
f 67/124/2 66/2/2 72/45/2 70/63/2
f 75/64/2 80/48/2 79/108/2 76/112/2
f 73/47/2 77/86/2 78/109/2 74/107/2
f 80/48/2 73/47/2 74/107/2 79/108/2
f 104/110/10 111/104/10 110/106/10 106/95/10
f 107/93/10 120/125/10 119/126/10 117/127/10 112/102/10 109/103/10 108/111/10
f 40/128/3 86/87/3 90/90/3 48/129/3
f 19/31/1 81/84/1 83/81/1 23/32/1
f 94/30/1 97/83/1 81/84/1 19/31/1
f 23/32/1 83/81/1 100/82/1 96/130/1
f 99/91/4 98/59/4 102/60/4 103/92/4
f 18/131/5 84/33/5 88/36/5 43/132/5
f 44/89/3 24/88/3 91/51/3 92/27/3
f 42/133/3 10/134/3 94/135/3 93/29/3
f 11/136/5 41/137/5 95/138/5 96/25/5
f 10/134/3 82/18/3 97/139/3 94/135/3
f 38/34/5 84/33/5 98/59/5 99/91/5
f 39/140/5 85/141/5 100/142/5 101/101/5
f 86/87/3 40/128/3 103/92/3 102/60/3
f 36/17/3 47/143/3 104/73/3 105/72/3
f 46/35/5 38/34/5 99/91/5 106/95/5
f 40/128/3 48/129/3 107/93/3 103/92/3
f 45/144/5 39/140/5 101/101/5 108/100/5
f 41/137/5 87/145/5 109/146/5 95/138/5
f 47/143/3 89/147/3 111/148/3 104/73/3
f 18/131/5 43/132/5 114/28/5 113/52/5
f 82/18/3 36/17/3 105/72/3 97/139/3
f 84/33/5 18/131/5 113/52/5 98/59/5
f 85/141/5 11/136/5 96/25/5 100/142/5
f 24/88/3 86/87/3 102/60/3 91/51/3
f 87/145/5 45/144/5 108/100/5 109/146/5
f 89/147/3 42/133/3 93/29/3 111/148/3
f 107/93/1 48/129/1 46/35/1 106/95/1 115/94/1
f 48/129/11 90/90/11 88/36/11 46/35/11
f 90/90/12 44/89/12 43/132/12 88/36/12
f 44/89/1 92/27/1 114/28/1 43/132/1
f 92/27/8 112/102/8 123/149/8 124/150/8 116/151/8 110/106/8 114/28/8
f 116/151/10 118/152/10 122/153/10 121/154/10 115/94/10 106/95/10 110/106/10
f 120/125/13 107/93/13 115/94/13 121/154/13 130/155/13 129/156/13
f 124/150/10 126/157/10 118/152/10 116/151/10
f 126/157/13 128/158/13 122/153/13 118/152/13
f 128/158/14 130/155/14 121/154/14 122/153/14
f 119/126/14 120/125/14 129/156/14 127/159/14
f 141/160/5 139/161/5 133/162/5 131/163/5
f 117/127/13 119/126/13 127/159/13 125/164/13
f 125/164/13 127/159/13 128/158/13 126/157/13
f 112/102/10 117/127/10 125/164/10 123/149/10
f 123/149/10 125/164/10 126/157/10 124/150/10
f 158/165/2 155/166/2 160/167/2 161/168/2
f 142/169/3 140/170/3 132/171/3 134/172/3
f 139/161/15 142/169/15 134/172/15 133/162/15
f 140/170/16 141/160/16 131/163/16 132/171/16
f 128/158/17 127/159/17 136/173/17 137/174/17
f 129/156/18 130/155/18 138/175/18 135/176/18
f 130/155/3 128/158/3 137/174/3 138/175/3
f 127/159/5 129/156/5 135/176/5 136/173/5
f 137/174/19 136/173/19 141/160/19 140/170/19
f 135/176/20 138/175/20 142/169/20 139/161/20
f 138/175/21 137/174/21 140/170/21 142/169/21
f 136/173/22 135/176/22 139/161/22 141/160/22
f 41/137/2 11/136/2 146/177/2 145/178/2
f 150/179/3 151/20/3 147/19/3 144/180/3 143/181/3 154/182/3
f 149/183/5 152/184/5 153/185/5 145/178/5 146/177/5 148/186/5
f 89/147/11 47/143/11 150/179/11 154/182/11
f 45/144/11 87/145/11 153/185/11 152/184/11
f 82/18/4 10/134/4 144/180/4 147/19/4
f 39/140/6 45/144/6 152/184/6 149/183/6
f 47/143/6 36/17/6 151/20/6 150/179/6
f 87/145/12 41/137/12 145/178/12 153/185/12
f 11/136/4 85/141/4 148/186/4 146/177/4
f 10/134/2 42/133/2 143/181/2 144/180/2
f 42/133/12 89/147/12 154/182/12 143/181/12
f 85/141/4 39/140/4 149/183/4 148/186/4
f 131/163/23 133/162/23 156/187/23 155/166/23
f 133/162/23 134/172/23 157/188/23 156/187/23
f 134/172/23 132/171/23 158/165/23 157/188/23
f 132/171/23 131/163/23 155/166/23 158/165/23
f 160/167/23 159/189/23 162/190/23 161/168/23
f 156/187/6 157/188/6 162/190/6 159/189/6
f 155/166/3 156/187/3 159/189/3 160/167/3
f 157/188/5 158/165/5 161/168/5 162/190/5
